<svg xmlns="http://www.w3.org/2000/svg" width="640" height="640" viewBox="0 0 640 640">
        <rect width="640" height="640" fill="#ead7bd"/>
        <ellipse cx="320" cy="92" rx="118" ry="60" fill="#ffffff"/>
        <rect x="202" y="92" width="236" height="84" fill="#ffffff"/>
        <ellipse cx="320" cy="176" rx="118" ry="30" fill="#ececec"/>
        <circle cx="320" cy="286" r="102" fill="#e0b78f"/>
        <path d="M218 276c0-62 45-104 102-104s102 42 102 104" fill="#2f241b"/>
        <circle cx="282" cy="286" r="9" fill="#181818"/>
        <circle cx="358" cy="286" r="9" fill="#181818"/>
        <path d="M288 332c10 10 22 15 32 15s22-5 32-15" stroke="#7a4d33" stroke-width="6" fill="none" stroke-linecap="round"/>
        <path d="M274 320c14 12 28 16 46 16s32-4 46-16" fill="#4a2e1d"/>
        <path d="M188 620c22-120 86-188 132-188s110 68 132 188" fill="#ffffff"/>
        <rect x="288" y="448" width="64" height="172" fill="#f2f2f2"/>
        </svg>